<svg width="869" height="997" viewBox="0 0 869 997" fill="none" xmlns="http://www.w3.org/2000/svg">
<g clip-path="url(#clip0_19_13)">
<path d="M807.05 758.64V815.85L780.65 751.1L807.05 758.64Z" fill="#22160F"/>
<path d="M786.62 708.02L807.05 758.64L780.65 751.1L786.62 708.02Z" fill="#150E0B"/>
<path d="M765.56 663.69L786.62 708.02L761.47 703.31L765.56 663.69Z" fill="#271114"/>
<path d="M786.62 708.02L780.65 751.1L761.47 703.31L786.62 708.02Z" fill="#210F0E"/>
<path d="M732.71 621.87L765.56 663.69H742.61L732.71 621.87Z" fill="#200F10"/>
<path d="M765.56 663.69L761.47 703.31L742.61 663.69H765.56Z" fill="#2D181E"/>
<path d="M732.71 621.87L742.61 663.69L693.25 620.3L732.71 621.87Z" fill="#301F1E"/>
<path d="M732.71 621.87L693.25 620.3L684.6 576.95L732.71 621.87Z" fill="#110B14"/>
<path d="M684.6 576.95L693.25 620.3L638.85 593.73L684.6 576.95Z" fill="#2B1A17"/>
<path d="M684.6 576.95L638.85 593.73L614.95 547.68L684.6 576.95Z" fill="#26140E"/>
<path d="M614.95 547.68L638.85 593.73L566.54 576.95L614.95 547.68Z" fill="#381D22"/>
<path d="M614.95 547.68L566.54 576.95L491.48 522.52L614.95 547.68Z" fill="#2F1418"/>
<path d="M566.54 576.95L453.04 574.4L491.48 522.52L566.54 576.95Z" fill="#26120F"/>
<path d="M491.48 522.52L453.04 574.4L347.73 536.96L491.48 522.52Z" fill="#291814"/>
<path d="M453.04 574.4L258.43 598.61L347.73 536.96L453.04 574.4Z" fill="#422B2A"/>
<path d="M347.73 536.96L258.43 598.61L229.2 542.02L347.73 536.96Z" fill="#321C19"/>
<path d="M229.2 542.02L258.43 598.61L112.23 618.11L229.2 542.02Z" fill="#503836"/>
<path d="M229.2 542.02L112.23 618.11L0 551.46L229.2 542.02Z" fill="#533E40"/>
<path d="M855.2 513.17L868.28 534.04L838.58 527.21L855.2 513.17Z" fill="#243A1E"/>
<path d="M868.28 534.04L833.16 557.74L838.58 527.21L868.28 534.04Z" fill="#2B421F"/>
<path d="M855.2 513.17L838.58 527.21L808 473.16L855.2 513.17Z" fill="#283C1E"/>
<path d="M840.07 422.54L809.88 453.04L791.18 437.95L840.07 422.54Z" fill="#375624"/>
<path d="M840.07 422.54L791.18 437.95L804.38 426.48L840.07 422.54Z" fill="#4C792E"/>
<path d="M840.07 422.54L804.38 426.48L812.09 397.16L840.07 422.54Z" fill="#41712E"/>
<path d="M808 473.16L838.58 527.21L795.58 513.88L808 473.16Z" fill="#1A2A19"/>
<path d="M838.58 527.21L833.16 557.74L826.66 536.05L838.58 527.21Z" fill="#24351C"/>
<path d="M838.58 527.21L826.66 536.05L795.58 513.88L838.58 527.21Z" fill="#1C2A1B"/>
<path d="M826.66 536.05L833.16 557.74L789.76 577.19L826.66 536.05Z" fill="#3B652A"/>
<path d="M826.66 536.05L789.76 577.19L780.65 550.51L826.66 536.05Z" fill="#2B4E22"/>
<path d="M822.46 776.08L823.25 846.67L800.62 813.66L822.46 776.08Z" fill="#517D2E"/>
<path d="M800.62 813.66L823.25 846.67L804.53 902.79L800.62 813.66Z" fill="#60812C"/>
<path d="M823.25 846.67L820.42 996.32L804.53 902.79L823.25 846.67Z" fill="#8DA334"/>
<path d="M816.8 701.25L822.46 776.08L793.7 753.45L816.8 701.25Z" fill="#50802F"/>
<path d="M822.46 776.08L800.62 813.66L793.7 753.45L822.46 776.08Z" fill="#50802F"/>
<path d="M807.53 653.15L816.8 701.25L780.65 692.46L807.53 653.15Z" fill="#426D2C"/>
<path d="M816.8 701.25L793.7 753.45L780.65 692.46L816.8 701.25Z" fill="#45772F"/>
<path d="M809.88 317.85L812.09 397.16L770.27 296.47L809.88 317.85Z" fill="#B2CC1A"/>
<path d="M770.27 296.47L812.09 397.16L773.41 373.35L770.27 296.47Z" fill="#A0C639"/>
<path d="M812.09 397.16L804.38 426.48L742.61 420.97L812.09 397.16Z" fill="#325223"/>
<path d="M812.09 397.16L742.61 420.97L773.41 373.35L812.09 397.16Z" fill="#2A4A20"/>
<path d="M801.08 238.62L809.88 317.85L773.41 246.24L801.08 238.62Z" fill="#9CC11C"/>
<path d="M773.41 246.24L809.88 317.85L770.27 296.47L773.41 246.24Z" fill="#B3CD37"/>
<path d="M809.88 453.04L808 473.16L795.11 465.62L809.88 453.04Z" fill="#A0BC31"/>
<path d="M809.88 453.04L795.11 465.62L791.18 437.95L809.88 453.04Z" fill="#386C2D"/>
<path d="M808 473.16L795.58 513.88L795.11 465.62L808 473.16Z" fill="#1E341C"/>
<path d="M798.72 612.92L807.53 653.15L769.01 655.36L798.72 612.92Z" fill="#466226"/>
<path d="M807.53 653.15L780.65 692.46L769.01 655.36L807.53 653.15Z" fill="#365E28"/>
<path d="M804.38 426.48L791.18 437.95L742.61 420.97L804.38 426.48Z" fill="#0E1812"/>
<path d="M773.41 158.77L801.08 238.62L773.41 246.24V158.77Z" fill="#D2DA42"/>
<path d="M789.76 577.19L798.72 612.92L743.67 593L789.76 577.19Z" fill="#254420"/>
<path d="M798.72 612.92L769.01 655.36L743.67 593L798.72 612.92Z" fill="#244521"/>
<path d="M795.11 465.62L795.58 513.88L760.85 491.71L795.11 465.62Z" fill="#162519"/>
<path d="M795.58 513.88L774.56 520.25L760.85 491.71L795.58 513.88Z" fill="#57782B"/>
<path d="M791.18 437.95L795.11 465.62L760.85 491.71L791.18 437.95Z" fill="#2E5827"/>
<path d="M791.18 437.95L760.85 491.71L715.73 480.87L791.18 437.95Z" fill="#23401D"/>
<path d="M791.18 437.95L715.73 480.87L702.36 453.99L791.18 437.95Z" fill="#60823A"/>
<path d="M791.18 437.95L702.36 453.99L742.61 420.97L791.18 437.95Z" fill="#446227"/>
<path d="M780.65 550.51L789.76 577.19L732.71 564.57L780.65 550.51Z" fill="#335A27"/>
<path d="M789.76 577.19L743.67 593L732.71 564.57L789.76 577.19Z" fill="#3F752F"/>
<path d="M774.56 520.25L780.65 550.51L752.51 535.81L774.56 520.25Z" fill="#203D1F"/>
<path d="M780.65 550.51L732.71 564.57L752.51 535.81L780.65 550.51Z" fill="#223A1E"/>
<path d="M760.85 491.71L774.56 520.25L752.51 535.81L760.85 491.71Z" fill="#67852F"/>
<path d="M773.41 158.77V246.24L708.02 196.5L773.41 158.77Z" fill="#B3CC1B"/>
<path d="M726.57 95.89L773.41 158.77L708.02 196.5L726.57 95.89Z" fill="#9FC31A"/>
<path d="M773.41 246.24L770.27 296.47L708.02 196.5L773.41 246.24Z" fill="#9CC11C"/>
<path d="M770.27 296.47L773.41 373.35L718.71 348.82L770.27 296.47Z" fill="#86B227"/>
<path d="M773.41 373.35L742.61 420.97L718.71 348.82L773.41 373.35Z" fill="#3A652A"/>
<path d="M708.02 196.5L770.27 296.47L718.71 348.82L708.02 196.5Z" fill="#6F992E"/>
<path d="M760.85 491.71L752.51 535.81L723.86 539.35L760.85 491.71Z" fill="#496C2A"/>
<path d="M760.85 491.71L723.86 539.35L691.04 533.53L760.85 491.71Z" fill="#6D9A2E"/>
<path d="M760.85 491.71L691.04 533.53L715.73 480.87L760.85 491.71Z" fill="#274721"/>
<path d="M752.51 535.81L732.71 564.57L723.86 539.35L752.51 535.81Z" fill="#213A1E"/>
<path d="M732.71 564.57L743.67 593L687.43 583.52L732.71 564.57Z" fill="#36652B"/>
<path d="M743.67 593L711.16 603.96L687.43 583.52L743.67 593Z" fill="#507D2F"/>
<path d="M718.71 348.82L742.61 420.97L680.36 406.82L718.71 348.82Z" fill="#253E1D"/>
<path d="M742.61 420.97L702.36 453.99L680.36 406.82L742.61 420.97Z" fill="#284620"/>
<path d="M732.71 564.57L687.43 583.52L669.2 570.78L732.71 564.57Z" fill="#1D301C"/>
<path d="M726.57 95.89L708.02 196.5L666.52 130.47L726.57 95.89Z" fill="#CED849"/>
<path d="M726.57 95.89L666.52 130.47L668.09 63.51L726.57 95.89Z" fill="#B4CD2E"/>
<path d="M708.02 196.5L718.71 348.82L649.54 222.9L708.02 196.5Z" fill="#7FB029"/>
<path d="M649.54 222.9L718.71 348.82L654.41 296.47L649.54 222.9Z" fill="#466929"/>
<path d="M718.71 348.82L680.36 406.82L664.64 385.93L718.71 348.82Z" fill="#162418"/>
<path d="M718.71 348.82L664.64 385.93L654.41 296.47L718.71 348.82Z" fill="#294A20"/>
<path d="M702.36 453.99L715.73 480.87L653.48 507.75L702.36 453.99Z" fill="#3B6C31"/>
<path d="M715.73 480.87L691.04 533.53L653.48 507.75L715.73 480.87Z" fill="#273D1D"/>
<path d="M711.16 603.96L680.67 616.21L687.43 583.52L711.16 603.96Z" fill="#67912E"/>
<path d="M666.52 130.47L708.02 196.5L649.54 222.9L666.52 130.47Z" fill="#7E9634"/>
<path d="M680.36 406.82L702.36 453.99L646.87 441.73L680.36 406.82Z" fill="#172919"/>
<path d="M702.36 453.99L653.48 507.75L646.87 441.73L702.36 453.99Z" fill="#284423"/>
<path d="M691.04 533.53L643.57 561.83L653.48 507.75L691.04 533.53Z" fill="#1E2D1A"/>
<path d="M687.43 583.52L680.67 616.21L669.2 601.6L687.43 583.52Z" fill="#4F782D"/>
<path d="M669.2 601.6L680.67 616.21H656.46L669.2 601.6Z" fill="#57762B"/>
<path d="M664.64 385.93L680.36 406.82L646.87 441.73L664.64 385.93Z" fill="#132318"/>
<path d="M669.2 601.6L656.46 616.21L645.14 607.41L669.2 601.6Z" fill="#536631"/>
<path d="M669.2 601.6L645.14 607.41L645.77 597.82L669.2 601.6Z" fill="#445325"/>
<path d="M668.09 63.51L666.52 130.47L616.34 57.5L668.09 63.51Z" fill="#A2C627"/>
<path d="M616.34 57.5L666.52 130.47L606.44 143.67L616.34 57.5Z" fill="#667F2A"/>
<path d="M666.52 130.47L649.54 222.9L606.44 143.67L666.52 130.47Z" fill="#4F712A"/>
<path d="M654.41 296.47L664.64 385.93L614.33 394.57L654.41 296.47Z" fill="#1D341C"/>
<path d="M664.64 385.93L646.87 441.73L614.33 394.57L664.64 385.93Z" fill="#132016"/>
<path d="M646.87 441.73L653.48 507.75L625.65 479.46L646.87 441.73Z" fill="#192A19"/>
<path d="M653.48 507.75L643.57 561.83L611.19 525.04L653.48 507.75Z" fill="#213D1E"/>
<path d="M614.33 394.57L646.87 441.73L573.77 429.94L614.33 394.57Z" fill="#0F1B13"/>
<path d="M646.87 441.73L625.65 479.46L600.18 453.99L646.87 441.73Z" fill="#0F1A13"/>
<path d="M646.87 441.73L600.18 453.99L573.77 429.94L646.87 441.73Z" fill="#132318"/>
<path d="M611.19 525.04L643.57 561.83L601.13 584.77L611.19 525.04Z" fill="#244320"/>
<path d="M625.65 479.46L577.79 507.75L559.62 479.46H625.65Z" fill="#355625"/>
<path d="M625.65 479.46H559.62L600.18 453.99L625.65 479.46Z" fill="#254621"/>
<path d="M616.34 57.5L606.44 143.67L561.16 71.29L616.34 57.5Z" fill="#79942A"/>
<path d="M611.19 525.04L601.13 584.77L582.58 548.94L611.19 525.04Z" fill="#1D321D"/>
<path d="M611.19 525.04L582.58 548.94L547.99 533.53L568.6 530.76L586.93 528.3L611.19 525.04Z" fill="#142318"/>
<path d="M582.58 548.94L601.13 584.77L562.14 598.61L582.58 548.94Z" fill="#294C21"/>
<path d="M586.93 528.3L568.6 530.76L572.35 515.76L586.93 528.3Z" fill="#3C5020"/>
<path d="M582.58 548.94L562.14 598.61L561.19 575.98L582.58 548.94Z" fill="#2A431F"/>
<path d="M559.62 479.46L577.79 507.75L554.91 503.27L559.62 479.46Z" fill="#3C6228"/>
<path d="M577.79 507.75L572.35 515.76L554.91 503.27L577.79 507.75Z" fill="#131F15"/>
<path d="M572.35 515.76L568.6 530.76L554.91 503.27L572.35 515.76Z" fill="#3D5E27"/>
<path d="M554.91 503.27L568.6 530.76L541.23 500.2L554.91 503.27Z" fill="#56742F"/>
<path d="M561.19 575.98L562.14 598.61L536.98 593.58L561.19 575.98Z" fill="#36692C"/>
<path d="M561.19 575.98L536.98 593.58L525.99 576.29L561.19 575.98Z" fill="#4B762D"/>
<path d="M559.62 479.46L554.91 503.27L541.23 500.2L559.62 479.46Z" fill="#375825"/>
<path d="M538.88 545.47V556.57L529.91 559.62L520.01 551.13L538.88 545.47Z" fill="#597329"/>
<path d="M525.99 530.76L538.88 545.47L520.01 551.13L525.99 530.76Z" fill="#384E21"/>
<path d="M526.61 571.42L510.1 584.03L508.33 569.88L526.61 571.42Z" fill="#50712B"/>
<path d="M525.99 530.76L520.01 551.13L500.44 527.59L525.99 530.76Z" fill="#192D1B"/>
<path d="M525.99 530.76L500.44 527.59L504.93 514.28L525.99 530.76Z" fill="#111E14"/>
<path d="M508.33 569.88L510.1 584.03L489.83 575.54L508.33 569.88Z" fill="#58812E"/>
<path d="M510.1 584.03L482.87 582.74L489.83 575.54L510.1 584.03Z" fill="#4E6A29"/>
<path d="M504.93 514.28L500.44 527.59L473.8 524.41L504.93 514.28Z" fill="#0A1612"/>
<path d="M504.93 514.28L473.8 524.41L458.08 493.61L504.93 514.28Z" fill="#0A130F"/>
<path d="M489.83 575.54L482.87 582.74L472.85 573.54L489.83 575.54Z" fill="#3F5422"/>
<path d="M458.08 493.61L473.8 524.41L434.19 530.76L458.08 493.61Z" fill="#152217"/>
<path d="M458.08 493.61L434.19 530.76L417.83 507.75L458.08 493.61Z" fill="#162619"/>
<path d="M654.41 206.4L661.97 309.2L568.59 245.07L654.41 206.4Z" fill="#86B82A"/>
<path d="M661.97 309.2L637.91 373.35L568.59 245.07L661.97 309.2Z" fill="#71A12E"/>
<path d="M619.68 158.77L654.41 206.4L521.2 168.2L619.68 158.77Z" fill="#7AA62C"/>
<path d="M654.41 206.4L568.59 245.07L521.2 168.2L654.41 206.4Z" fill="#609530"/>
<path d="M568.59 245.07L637.91 373.35L504.93 324.3L568.59 245.07Z" fill="#80BC00"/>
<path d="M637.91 373.35L557.27 446.56L450.21 455.41L637.91 373.35Z" fill="#244821"/>
<path d="M637.91 373.35L450.21 455.41L504.93 324.3L637.91 373.35Z" fill="#689D30"/>
<path d="M568.59 73.41L619.68 158.77L528.18 134.87L568.59 73.41Z" fill="#98C227"/>
<path d="M619.68 158.77L521.2 168.2L528.18 134.87L619.68 158.77Z" fill="#96BE33"/>
<path d="M568.59 73.41L528.18 134.87L525.2 80.95L568.59 73.41Z" fill="#91B423"/>
<path d="M521.2 168.2L568.59 245.07L473.8 213.48L521.2 168.2Z" fill="#568830"/>
<path d="M568.59 245.07L504.93 324.3L492.66 304.02L568.59 245.07Z" fill="#AAAFAF"/>
<path d="M568.59 73.41L525.2 80.95L483.7 23.9L568.59 73.41Z" fill="#B3CC1E"/>
<path d="M568.59 245.07L492.66 304.02L473.8 213.48L568.59 245.07Z" fill="#5D8C30"/>
<path d="M557.27 446.56L450.21 502.1V455.41L557.27 446.56Z" fill="#182F1C"/>
<path d="M525.2 80.95L528.2 134.87L478.84 160.33L409.51 161.28L322.59 132.99L341.29 95.57L400.7 58.74L469.56 49.74L525.2 80.95ZM486.05 132.51V124.65L479.84 119.86L469.56 118.74L463.35 122.74C463.35 122.74 460.52 128 460.52 128.23C460.52 128.46 462.16 136.23 462.16 136.23L469.56 140.17L481.34 138.6L486.05 132.51Z" fill="#E5E4E4"/>
<path d="M528.18 134.87L521.2 168.2L478.82 160.34L528.18 134.87Z" fill="#507E2F"/>
<path d="M483.7 23.9L525.2 80.95L469.56 49.83L483.7 23.9Z" fill="#57852F"/>
<path d="M521.2 168.2L473.8 213.48L478.82 160.34L521.2 168.2Z" fill="#43742E"/>
<path d="M492.66 304.02L504.93 324.3L434.19 375.7L412.48 348.82L492.66 304.02Z" fill="#D8E2DF"/>
<path d="M504.93 324.3L450.21 455.41L434.19 375.7L504.93 324.3Z" fill="#7BB929"/>
<path d="M473.8 213.48L492.66 304.02L412.48 348.82L473.8 213.48Z" fill="#508230"/>
<path d="M486.05 124.65V132.51L481.34 138.65L469.56 140.22L462.16 136.28C462.16 136.28 460.52 128.5 460.52 128.28C460.52 128.06 463.35 122.74 463.35 122.74L469.56 118.74L479.84 119.85L486.05 124.65Z" fill="#1D1D1B"/>
<path d="M483.7 23.9L469.56 49.83L420.04 4.56L483.7 23.9Z" fill="#4F7F2F"/>
<path d="M478.82 160.34L473.8 213.48L409.5 161.29L478.82 160.34Z" fill="#39692C"/>
<path d="M473.8 213.48L412.48 348.82L388.59 287.98L473.8 213.48Z" fill="#558830"/>
<path d="M473.8 213.48L388.59 287.98L384.03 192.41L473.8 213.48Z" fill="#4C7B2F"/>
<path d="M473.8 213.48L384.03 192.41L409.5 161.29L473.8 213.48Z" fill="#355B27"/>
<path d="M469.56 49.83L400.7 58.78L420.04 4.56L469.56 49.83Z" fill="#396B2C"/>
<path d="M450.21 455.41V502.1L355.89 520.49L450.21 455.41Z" fill="#213B1E"/>
<path d="M434.19 375.7L450.21 455.41L359.67 481.34L434.19 375.7Z" fill="#61A60E"/>
<path d="M450.21 455.41L355.89 520.49L359.67 481.34L450.21 455.41Z" fill="#2D4F23"/>
<path d="M412.48 348.82L434.19 375.7L364.86 409.65L330.42 379.94L412.48 348.82Z" fill="#CED7D4"/>
<path d="M434.19 375.7L359.67 481.34L364.86 409.65L434.19 375.7Z" fill="#80BC00"/>
<path d="M420.04 4.56L400.7 58.78L360.13 23.9L420.04 4.56Z" fill="#477A2F"/>
<path d="M420.04 4.56L360.13 23.9L361.88 0L420.04 4.56Z" fill="#A6C51B"/>
<path d="M388.59 287.98L412.48 348.82L330.42 379.94L388.59 287.98Z" fill="#527D2E"/>
<path d="M409.5 161.29L384.03 192.41L322.57 132.99L409.5 161.29Z" fill="#2C5425"/>
<path d="M400.7 58.78L341.28 95.57L360.13 23.9L400.7 58.78Z" fill="#47732D"/>
<path d="M384.03 192.41L388.59 287.98L302.45 268.5L384.03 192.41Z" fill="#4A7A2F"/>
<path d="M388.59 287.98L330.42 379.94L268.5 309.05L388.59 287.98Z" fill="#548730"/>
<path d="M388.59 287.98L268.5 309.05L302.45 268.5L388.59 287.98Z" fill="#518330"/>
<path d="M384.03 192.41L302.45 268.5L268.5 193.03L384.03 192.41Z" fill="#518330"/>
<path d="M384.03 192.41L268.5 193.03L322.57 132.99L384.03 192.41Z" fill="#4D7C2F"/>
<path d="M364.86 409.65L359.67 481.34L272.66 442.43L364.86 409.65Z" fill="#487629"/>
<path d="M364.86 409.65L272.66 442.43L270.38 406.51L330.42 379.94L364.86 409.65Z" fill="#D8E2DF"/>
<path d="M361.88 0L360.13 23.9L270.38 48.73L361.88 0Z" fill="#C7D434"/>
<path d="M360.13 23.9L341.28 95.57L322.57 73.41L360.13 23.9Z" fill="#37672B"/>
<path d="M360.13 23.9L322.57 73.41L248.37 130.47L360.13 23.9Z" fill="#81AC29"/>
<path d="M360.13 23.9L248.37 130.47L270.38 48.73L360.13 23.9Z" fill="#9DB81E"/>
<path d="M359.67 481.34L355.89 520.49L259.69 510.1L359.67 481.34Z" fill="#25411E"/>
<path d="M359.67 481.34L259.69 510.1L272.66 442.43L359.67 481.34Z" fill="#386028"/>
<path d="M322.57 73.41L341.28 95.57L322.57 132.99V73.41Z" fill="#4A722C"/>
<path d="M268.5 309.05L330.42 379.94L270.38 406.51L268.5 309.05Z" fill="#4D8030"/>
<path d="M322.57 73.41V132.99L248.37 130.47L322.57 73.41Z" fill="#74A02D"/>
<path d="M322.57 132.99L268.5 193.03L248.37 130.47L322.57 132.99Z" fill="#5B8B30"/>
<path d="M268.5 193.03L302.45 268.5L211.12 255.28L268.5 193.03Z" fill="#4C7C2F"/>
<path d="M302.45 268.5L268.5 309.05L209.39 321L302.45 268.5Z" fill="#538530"/>
<path d="M302.45 268.5L209.39 321L211.12 255.28L302.45 268.5Z" fill="#527D2E"/>
<path d="M270.38 406.51L272.66 442.43L205.46 451.63L205.15 419.33L270.38 406.51Z" fill="#CED7D4"/>
<path d="M272.66 442.43L259.69 510.1L205.46 451.63L272.66 442.43Z" fill="#4A8B2C"/>
<path d="M270.38 48.73L248.37 130.47L227.63 84.58L270.38 48.73Z" fill="#A2C319"/>
<path d="M268.5 309.05L270.38 406.51L205.15 419.33L268.5 309.05Z" fill="#5D8C30"/>
<path d="M248.37 130.47L268.5 193.03L155.32 215.67L248.37 130.47Z" fill="#87AF27"/>
<path d="M268.5 193.03L211.12 255.28L155.32 215.67L268.5 193.03Z" fill="#97C13E"/>
<path d="M268.5 309.05L205.15 419.33L210.01 348.82L268.5 309.05Z" fill="#538430"/>
<path d="M268.5 309.05L210.01 348.82L209.39 321L268.5 309.05Z" fill="#43762F"/>
<path d="M205.46 451.63L259.69 510.1L180.46 473.8L205.46 451.63Z" fill="#365C27"/>
<path d="M227.63 84.58L248.37 130.47L222.9 93.69L227.63 84.58Z" fill="#CAD961"/>
<path d="M222.9 93.69L248.37 130.47L182.66 149.33L222.9 93.69Z" fill="#BACF2F"/>
<path d="M248.37 130.47L155.32 215.67L182.66 149.33L248.37 130.47Z" fill="#8DBC23"/>
<path d="M227.63 84.58L222.9 93.69L182.66 87.32L227.63 84.58Z" fill="#96AD3E"/>
<path d="M227.63 84.58L182.66 87.32L181.4 80.95L227.63 84.58Z" fill="#D3E092"/>
<path d="M222.9 93.68L182.67 149.33L144.31 170.74L125.45 191.74V132.99L130.02 110.19L150.02 93.68L182.72 87.32L222.9 93.68ZM151.58 114.2V108.07L149.97 105.6H144.51L137.2 112.54V117.49L140.85 120.68L146.99 120.1L151.58 114.2Z" fill="#E5E4E4"/>
<path d="M211.12 255.28L209.39 321L171.97 326.34L211.12 255.28Z" fill="#6D952E"/>
<path d="M211.12 255.28L171.97 326.34L158.46 321.31L211.12 255.28Z" fill="#85AE2A"/>
<path d="M211.12 255.28L158.46 321.31L121.36 333.96L211.12 255.28Z" fill="#A6C94C"/>
<path d="M211.12 255.28L121.36 333.96L151.54 231.08L211.12 255.28Z" fill="#BFD249"/>
<path d="M211.12 255.28L151.54 231.08L155.32 215.67L211.12 255.28Z" fill="#D2DB5D"/>
<path d="M209.39 321L210.01 348.82L195.86 355.89L185.49 345.52L188.79 331.06L209.39 321Z" fill="#1D1D1B"/>
<path d="M210.01 348.82L205.15 419.33L195.86 355.89L210.01 348.82Z" fill="#598B30"/>
<path d="M209.39 321L188.79 331.06L171.97 326.34L209.39 321Z" fill="#54792C"/>
<path d="M205.15 419.33L205.46 451.63L161.6 419.33H205.15Z" fill="#D8E2DF"/>
<path d="M205.46 451.63L180.46 473.8L161.6 419.33L205.46 451.63Z" fill="#2E5827"/>
<path d="M195.86 355.89L205.15 419.33L154.76 348.82L195.86 355.89Z" fill="#528330"/>
<path d="M154.76 348.82L205.15 419.33L143.05 412.81L154.76 348.82Z" fill="#5A862F"/>
<path d="M195.86 355.89L154.76 348.82L171.97 345.52H185.49L195.86 355.89Z" fill="#4A752D"/>
<path d="M188.79 331.06L185.49 345.52L171.97 326.34L188.79 331.06Z" fill="#4B7D30"/>
<path d="M171.97 326.34L185.49 345.52H171.97V326.34Z" fill="#537F2F"/>
<path d="M181.4 80.95L182.66 87.32L149.97 93.69L181.4 80.95Z" fill="#B3C573"/>
<path d="M182.66 149.33L155.32 215.67L144.31 170.71L182.66 149.33Z" fill="#55832F"/>
<path d="M161.6 419.33L180.46 473.8L154.76 442.19L161.6 419.33Z" fill="#243F1D"/>
<path d="M171.97 326.34V345.52L154.76 348.82L151.54 337.34L158.46 321.31L171.97 326.34Z" fill="#1D1D1B"/>
<path d="M158.46 321.31L151.54 337.34L121.36 333.96L158.46 321.31Z" fill="#BED24A"/>
<path d="M144.31 170.71L155.32 215.67H136.44L144.31 170.71Z" fill="#7AA431"/>
<path d="M155.32 215.67L151.54 231.08L136.44 215.67H155.32Z" fill="#56842F"/>
<path d="M151.54 337.34L154.76 348.82L117.27 387.65L151.54 337.34Z" fill="#8DB325"/>
<path d="M154.76 348.82L143.05 412.81L117.27 387.65L154.76 348.82Z" fill="#769E2C"/>
<path d="M151.58 108.08V114.2L146.98 120.1L140.84 120.68L137.19 117.5V112.55L144.51 105.6H149.97L151.58 108.08Z" fill="#1D1D1B"/>
<path d="M151.54 337.34L117.27 387.65L121.36 333.96L151.54 337.34Z" fill="#CDD84F"/>
<path d="M144.31 170.71L136.44 215.67L125.44 191.78L144.31 170.71Z" fill="#729131"/>
</g>
<defs>
<clipPath id="clip0_19_13">
<rect width="868.29" height="996.32" fill="white"/>
</clipPath>
</defs>
</svg>
