<svg xmlns="http://www.w3.org/2000/svg" viewBox="0 0 648 720"><defs><style>.cls-1{fill:#e3e5e4;}.cls-2{fill:#939393;}.cls-3{fill:#e7e8ea;}.cls-4{fill:#7d7f7e;}.cls-5{fill:#d8dad9;}.cls-6{fill:#727272;}.cls-7{fill:#f4f2f5;}.cls-8{fill:#c2c2c2;}.cls-9{fill:#a2a2a2;}.cls-10{fill:#868887;}.cls-11{fill:#b9b9b9;}.cls-12{fill:#6d6d6d;}</style></defs><g id="Layer_2" data-name="Layer 2"><g id="Layer_3" data-name="Layer 3"><polygon class="cls-1" points="0 144 144 99 180 0 0 144"/><polygon class="cls-2" points="0 576 216 720 144 612 0 576"/><polygon class="cls-3" points="180 0 144 99 360 0 180 0"/><polygon class="cls-4" points="144 612 216 720 324 576 144 612"/><polygon class="cls-5" points="144 99 324 144 360 0 144 99"/><polygon class="cls-6" points="324 576 216 720 360 720 324 576"/><polygon class="cls-7" points="360 0 324 144 504 72 360 0"/><polygon class="cls-8" points="324 144 396 252 504 72 324 144"/><polygon class="cls-9" points="405 477 324 576 504 648 405 477"/><polygon class="cls-10" points="324 576 360 720 504 648 324 576"/><polygon class="cls-9" points="504 72 396 252 648 252 504 72"/><polygon class="cls-11" points="396 252 432 360 648 252 396 252"/><polygon class="cls-9" points="432 360 405 477 648 468 432 360"/><polygon class="cls-12" points="405 477 504 648 648 468 405 477"/><polygon class="cls-4" points="432 360 648 468 648 252 432 360"/></g></g></svg>