<svg xmlns="http://www.w3.org/2000/svg" viewBox="0 0 720 720"><defs><style>.cls-1{fill:#fd9100;}.cls-2{fill:#fea002;}.cls-3{fill:#fdc403;}.cls-4{fill:#feb602;}.cls-5{fill:#fecb00;}.cls-6{fill:#fdab00;}.cls-7{fill:#fd9900;}.cls-8{fill:#feb202;}.cls-9{fill:#fec201;}.cls-10{fill:#fead01;}</style></defs><g id="Layer_2" data-name="Layer 2"><g id="Layer_2-2" data-name="Layer 2"><polygon class="cls-1" points="360 504 360 720 90 630 360 504"/><polygon class="cls-2" points="630 630 360 720 360 504 630 630"/><polygon class="cls-3" points="504 288 630 630 360 504 504 288"/><polygon class="cls-4" points="720 360 630 630 504 288 720 360"/><polygon class="cls-5" points="504 288 360 504 216 288 504 288"/><polygon class="cls-6" points="216 288 360 504 90 630 216 288"/><polygon class="cls-7" points="216 288 90 630 0 360 216 288"/><polygon class="cls-1" points="90 90 216 288 0 360 90 90"/><polygon class="cls-8" points="360 0 216 288 90 90 360 0"/><polygon class="cls-9" points="360 0 504 288 216 288 360 0"/><polygon class="cls-10" points="630 90 504 288 360 0 630 90"/><polygon class="cls-4" points="630 90 720 360 504 288 630 90"/></g></g></svg>